<svg width="611" height="150" viewBox="0 0 611 150" fill="none" xmlns="http://www.w3.org/2000/svg">
<path d="M373.615 110C367.348 110 361.748 109.167 356.815 107.5C351.882 105.833 347.715 103.433 344.315 100.3C340.915 97.1667 338.315 93.4667 336.515 89.2C334.715 84.9333 333.815 80.2 333.815 75C333.815 69.8 334.715 65.0667 336.515 60.8C338.315 56.5333 340.915 52.8333 344.315 49.7C347.782 46.5667 351.948 44.1667 356.815 42.5C361.748 40.8333 367.348 40 373.615 40H384.215V56.9H374.315C371.248 56.9 368.548 57.3667 366.215 58.3C363.882 59.2333 361.948 60.5333 360.415 62.2C358.882 63.8 357.715 65.7 356.915 67.9C356.182 70.1 355.815 72.4667 355.815 75C355.815 77.5333 356.182 79.9 356.915 82.1C357.715 84.3 358.882 86.2333 360.415 87.9C361.948 89.5 363.882 90.7667 366.215 91.7C368.548 92.6333 371.248 93.1 374.315 93.1H384.215V110H373.615ZM390.691 110V37H409.791V61.1C411.657 59.7667 413.724 58.7667 415.991 58.1C418.257 57.3667 420.524 57 422.791 57C427.057 57 430.757 57.9333 433.891 59.8C437.091 61.6667 439.557 64.3333 441.291 67.8C443.091 71.2667 443.991 75.4 443.991 80.2V110H424.791V81.9C424.791 80.2333 424.424 78.8333 423.691 77.7C423.024 76.5667 422.124 75.7 420.991 75.1C419.857 74.4333 418.657 74.1 417.391 74.1C416.057 74.1 414.791 74.4 413.591 75C412.457 75.6 411.524 76.5 410.791 77.7C410.124 78.8333 409.791 80.2 409.791 81.8V110H390.691ZM481.507 110C475.707 110 470.54 109 466.007 107C461.474 105 457.874 102.1 455.207 98.3C452.607 94.4333 451.307 89.7333 451.307 84.2C451.307 78.1333 452.607 73.1 455.207 69.1C457.807 65.1 461.174 62.1 465.307 60.1C469.507 58.0333 473.907 57 478.507 57C483.24 57 487.474 58 491.207 60C495.007 61.9333 498.007 64.7333 500.207 68.4C502.474 72.0667 503.607 76.4667 503.607 81.6C503.607 82.8667 503.54 84.3333 503.407 86C503.274 87.6 503.074 88.9667 502.807 90.1H471.007C471.274 91.2333 471.774 92.2 472.507 93C473.24 93.7333 474.24 94.2667 475.507 94.6C476.774 94.9333 478.207 95.1 479.807 95.1H498.307V110H481.507ZM470.107 79.5H485.907C485.907 78.7 485.807 77.9333 485.607 77.2C485.407 76.4667 485.074 75.8 484.607 75.2C484.207 74.5333 483.707 73.9667 483.107 73.5C482.507 72.9667 481.774 72.5667 480.907 72.3C480.107 72.0333 479.207 71.9 478.207 71.9C476.94 71.9 475.807 72.1 474.807 72.5C473.874 72.9 473.074 73.4333 472.407 74.1C471.74 74.7667 471.207 75.5667 470.807 76.5C470.474 77.4333 470.24 78.4333 470.107 79.5ZM511.003 110V96.4H535.203C535.736 96.4 536.17 96.3 536.503 96.1C536.836 95.8333 537.103 95.5333 537.303 95.2C537.503 94.8 537.603 94.4 537.603 94C537.603 93.6 537.503 93.2333 537.303 92.9C537.103 92.5 536.836 92.2 536.503 92C536.17 91.8 535.736 91.7 535.203 91.7H527.403C524.003 91.7 520.903 91.1333 518.103 90C515.303 88.8 513.07 86.9667 511.403 84.5C509.803 81.9667 509.003 78.7333 509.003 74.8C509.003 71.7333 509.736 68.9667 511.203 66.5C512.736 63.9667 514.803 61.9667 517.403 60.5C520.003 58.9667 522.87 58.2 526.003 58.2H552.303V71.8H530.503C529.836 71.8 529.27 72.0333 528.803 72.5C528.403 72.9667 528.203 73.5 528.203 74.1C528.203 74.7 528.403 75.2333 528.803 75.7C529.27 76.1667 529.836 76.4 530.503 76.4H537.703C541.57 76.4 544.903 77 547.703 78.2C550.57 79.3333 552.77 81.1333 554.303 83.6C555.836 86.0667 556.603 89.2667 556.603 93.2C556.603 96.2667 555.803 99.0667 554.203 101.6C552.67 104.133 550.603 106.167 548.003 107.7C545.403 109.233 542.47 110 539.203 110H511.003ZM563.152 110V96.4H587.352C587.885 96.4 588.318 96.3 588.652 96.1C588.985 95.8333 589.252 95.5333 589.452 95.2C589.652 94.8 589.752 94.4 589.752 94C589.752 93.6 589.652 93.2333 589.452 92.9C589.252 92.5 588.985 92.2 588.652 92C588.318 91.8 587.885 91.7 587.352 91.7H579.552C576.152 91.7 573.052 91.1333 570.252 90C567.452 88.8 565.218 86.9667 563.552 84.5C561.952 81.9667 561.152 78.7333 561.152 74.8C561.152 71.7333 561.885 68.9667 563.352 66.5C564.885 63.9667 566.952 61.9667 569.552 60.5C572.152 58.9667 575.018 58.2 578.152 58.2H604.452V71.8H582.652C581.985 71.8 581.418 72.0333 580.952 72.5C580.552 72.9667 580.352 73.5 580.352 74.1C580.352 74.7 580.552 75.2333 580.952 75.7C581.418 76.1667 581.985 76.4 582.652 76.4H589.852C593.718 76.4 597.052 77 599.852 78.2C602.718 79.3333 604.918 81.1333 606.452 83.6C607.985 86.0667 608.752 89.2667 608.752 93.2C608.752 96.2667 607.952 99.0667 606.352 101.6C604.818 104.133 602.752 106.167 600.152 107.7C597.552 109.233 594.618 110 591.352 110H563.152Z" fill="#88A3D8"/>
<path d="M5.6 110V93.1H35.3C36.4333 93.1 37.3667 92.8667 38.1 92.4C38.9 91.9333 39.5 91.3333 39.9 90.6C40.3667 89.8 40.6 88.9667 40.6 88.1C40.6 87.1667 40.3667 86.3333 39.9 85.6C39.5 84.8 38.9 84.1667 38.1 83.7C37.3667 83.2333 36.4333 83 35.3 83H26.3C21.9667 83 18.0333 82.1667 14.5 80.5C10.9667 78.8333 8.13333 76.4333 6 73.3C3.93333 70.1 2.9 66.2667 2.9 61.8C2.9 57.4 3.9 53.5667 5.9 50.3C7.9 47.0333 10.6 44.5 14 42.7C17.4 40.9 21.1667 40 25.3 40H57.2V56.9H28.2C27.2667 56.9 26.4333 57.1 25.7 57.5C25.0333 57.9 24.5 58.4333 24.1 59.1C23.7667 59.7667 23.6 60.5 23.6 61.3C23.6 62.1 23.7667 62.8333 24.1 63.5C24.5 64.1667 25.0333 64.7333 25.7 65.2C26.4333 65.6 27.2667 65.8 28.2 65.8H37.9C42.6333 65.8 46.7667 66.7 50.3 68.5C53.8333 70.2333 56.5667 72.6667 58.5 75.8C60.4333 78.9333 61.4 82.6333 61.4 86.9C61.4 91.7667 60.3667 95.9333 58.3 99.4C56.3 102.867 53.6 105.5 50.2 107.3C46.8 109.1 43.0333 110 38.9 110H5.6ZM68.4602 110V58.2H87.6602V110H68.4602ZM78.0602 52.9C75.2602 52.9 72.8602 51.9 70.8602 49.9C68.8602 47.8333 67.8602 45.4333 67.8602 42.7C67.8602 39.9 68.8602 37.5 70.8602 35.5C72.8602 33.4333 75.2602 32.4 78.0602 32.4C80.8602 32.4 83.2602 33.4333 85.2602 35.5C87.2602 37.5 88.2602 39.9 88.2602 42.7C88.2602 45.4333 87.2602 47.8333 85.2602 49.9C83.2602 51.9 80.8602 52.9 78.0602 52.9ZM96.1945 110V79.8C96.1945 75.1333 97.2279 71.1 99.2945 67.7C101.361 64.3 104.228 61.6667 107.895 59.8C111.628 57.9333 115.995 57 120.995 57C123.595 57 125.995 57.2667 128.195 57.8C130.395 58.2667 132.361 58.9333 134.095 59.8C135.828 60.6 137.295 61.5333 138.495 62.6H138.795C140.061 61.5333 141.528 60.6 143.195 59.8C144.928 58.9333 146.895 58.2667 149.095 57.8C151.295 57.2667 153.695 57 156.295 57C161.361 57 165.761 57.9333 169.495 59.8C173.228 61.6667 176.128 64.3 178.195 67.7C180.261 71.1 181.295 75.1333 181.295 79.8V110H161.995V81.1C161.995 79.8333 161.728 78.7 161.195 77.7C160.661 76.6333 159.895 75.7667 158.895 75.1C157.895 74.4333 156.661 74.1 155.195 74.1C153.728 74.1 152.461 74.4333 151.395 75.1C150.395 75.7667 149.628 76.6333 149.095 77.7C148.561 78.7 148.295 79.8333 148.295 81.1V110H129.195V81.1C129.195 79.8333 128.895 78.7 128.295 77.7C127.761 76.6333 126.961 75.7667 125.895 75.1C124.828 74.4333 123.561 74.1 122.095 74.1C120.695 74.1 119.461 74.4333 118.395 75.1C117.395 75.7667 116.628 76.6333 116.095 77.7C115.561 78.7 115.295 79.8333 115.295 81.1V110H96.1945ZM218.249 56.9C222.583 56.9 226.483 57.5667 229.949 58.9C233.483 60.2333 236.516 62.1667 239.049 64.7C241.583 67.1667 243.516 70.1 244.849 73.5C246.249 76.9 246.949 80.6667 246.949 84.8C246.949 90.0667 245.849 94.7 243.649 98.7C241.516 102.633 238.583 105.7 234.849 107.9C231.116 110.1 226.949 111.2 222.349 111.2C220.549 111.2 218.849 111 217.249 110.6C215.649 110.2 214.183 109.633 212.849 108.9C211.516 108.1 210.349 107.1 209.349 105.9H208.749V131.2H189.549V85C189.549 79.3333 190.749 74.4 193.149 70.2C195.549 66 198.916 62.7333 203.249 60.4C207.583 58.0667 212.583 56.9 218.249 56.9ZM218.249 73.7C216.516 73.7 214.949 74.1333 213.549 75C212.149 75.8667 211.049 77.0667 210.249 78.6C209.516 80.1333 209.149 81.9333 209.149 84C209.149 85.8667 209.516 87.5667 210.249 89.1C211.049 90.5667 212.149 91.7333 213.549 92.6C214.949 93.4667 216.516 93.9 218.249 93.9C220.049 93.9 221.616 93.4667 222.949 92.6C224.349 91.7333 225.416 90.5667 226.149 89.1C226.949 87.5667 227.349 85.8667 227.349 84C227.349 81.9333 226.949 80.1333 226.149 78.6C225.416 77.0667 224.349 75.8667 222.949 75C221.616 74.1333 220.049 73.7 218.249 73.7ZM254.495 110V37H273.595V110H254.495Z" fill="#1A1B1B"/>
<path d="M282.864 99.0888C283.417 98.5368 284.168 98.2267 284.95 98.2267C284.95 98.2267 289.608 97.9072 293.275 91.3013C296.942 84.6954 297.7 77.8977 297.7 69.8036C297.7 69.2458 297.248 68.7936 296.69 68.7936H294.75C293.968 68.7936 293.217 68.4835 292.664 67.9316C292.111 67.3796 291.8 66.6309 291.8 65.8503V59.9637C291.8 59.1831 292.111 58.4344 292.664 57.8825C293.217 57.3305 293.818 57.0204 294.75 57.0204H316.25C317.038 57.0204 317.783 57.3305 318.336 57.8825C318.889 58.4344 319.2 59.1831 319.2 59.9637V65.8503C319.2 66.6309 318.889 67.3796 318.336 67.9316C317.783 68.4835 317.032 68.7936 316.25 68.7936H314.31C313.752 68.7936 313.3 69.2458 313.3 69.8036C313.3 77.8977 314.063 84.6954 317.725 91.3013C321.387 97.9072 326.05 98.2267 326.05 98.2267C326.832 98.2267 327.583 98.5368 328.136 99.0888C328.689 99.6408 329 100.389 329 101.17V107.057C329 107.837 328.689 108.586 328.136 109.138C327.583 109.69 326.832 110 326.05 110H284.95C284.168 110 283.417 109.69 282.864 109.138C282.311 108.586 282 107.837 282 107.057V101.17C282 100.389 282.311 99.6408 282.864 99.0888Z" fill="#1A1B1B"/>
<circle cx="305.5" cy="42.5" r="10.5" fill="#1A1B1B"/>
</svg>
